<svg xmlns="http://www.w3.org/2000/svg" viewBox="0 0 24 16" role="img" aria-label="United States">
  <rect width="24" height="16" fill="#b22234"/>
  <path fill="#fff" d="M0 1.23h24V2.46H0V1.23zm0 2.46h24v1.23H0V3.69zm0 2.46h24v1.23H0V6.15zm0 2.46h24v1.23H0V8.61zm0 2.46h24v1.23H0v-1.23zm0 2.46h24V16H0v-1.23z"/>
  <rect width="9.6" height="8.61" fill="#3c3b6e"/>
  <g fill="#fff">
    <circle cx="1.2" cy="1.08" r="0.35"/>
    <circle cx="2.4" cy="1.08" r="0.35"/>
    <circle cx="3.6" cy="1.08" r="0.35"/>
    <circle cx="4.8" cy="1.08" r="0.35"/>
    <circle cx="6" cy="1.08" r="0.35"/>
    <circle cx="7.2" cy="1.08" r="0.35"/>
    <circle cx="8.4" cy="1.08" r="0.35"/>
    <circle cx="1.8" cy="2.16" r="0.35"/>
    <circle cx="3" cy="2.16" r="0.35"/>
    <circle cx="4.2" cy="2.16" r="0.35"/>
    <circle cx="5.4" cy="2.16" r="0.35"/>
    <circle cx="6.6" cy="2.16" r="0.35"/>
    <circle cx="7.8" cy="2.16" r="0.35"/>
  </g>
</svg>
